<svg height="2206" width="720" xmlns="http://www.w3.org/2000/svg">
<rect height="2206" fill="#555" width="720"></rect>
<text fill="#7f7" font-family="Courier New" font-size="12" xml:space="preserve">
<tspan x="10" y="26"></tspan>
<tspan x="10" y="42">&gt; npmdoc-slug@0.0.1 test /home/travis/build/npmdoc/node-npmdoc-slug</tspan>
<tspan x="10" y="58">&gt; (set -e; export PORT=$(utility2 shServerPortRandom); utility2 test test.js)</tspan>
<tspan x="10" y="74"></tspan>
<tspan x="10" y="90"></tspan>
<tspan x="10" y="106">[MODE_BUILD=npmTest] - 2017-03-25T12:35:51Z - npm-testing /home/travis/build/npmdoc/node-npmdoc-\</tspan>
<tspan x="10" y="122">slug</tspan>
<tspan x="10" y="138"></tspan>
<tspan x="10" y="154"></tspan>
<tspan x="10" y="170">covering $ /home/travis/.nvm/versions/node/v6.10.1/bin/node /home/travis/build/npmdoc/node-npmdo\</tspan>
<tspan x="10" y="186">c-slug/test.js</tspan>
<tspan x="10" y="202">merging file:///home/travis/build/npmdoc/node-npmdoc-slug/tmp/build/test-report.json to test-rep\</tspan>
<tspan x="10" y="218">ort</tspan>
<tspan x="10" y="234">&gt; server listening on http-port 55346</tspan>
<tspan x="10" y="250">created apidoc file:///home/travis/build/npmdoc/node-npmdoc-slug/tmp/build/apidoc.html</tspan>
<tspan x="10" y="266"></tspan>
<tspan x="10" y="282"></tspan>
<tspan x="10" y="298">browserTest - created electron entry-page /home/travis/build/npmdoc/node-npmdoc-slug/tmp/electro\</tspan>
<tspan x="10" y="314">n.15b05773db90.9381c48a99708.html</tspan>
<tspan x="10" y="330"></tspan>
<tspan x="10" y="346">[node test-case 1 of 6 passed] - testCase_buildLib_default</tspan>
<tspan x="10" y="362">[node test-case 2 of 6 passed] - testCase_buildReadme_default</tspan>
<tspan x="10" y="378">[node test-case 3 of 6 passed] - testCase_buildTest_default</tspan>
<tspan x="10" y="394"></tspan>
<tspan x="10" y="410">browserTest - created electron entry-page /home/travis/build/npmdoc/node-npmdoc-slug/tmp/electro\</tspan>
<tspan x="10" y="426">n.15b05773e100.563dbc427d30e.html</tspan>
<tspan x="10" y="442"></tspan>
<tspan x="10" y="458">Xlib:  extension "RANDR" missing on display ":99.0".</tspan>
<tspan x="10" y="474">Xlib:  extension "RANDR" missing on display ":99.0".</tspan>
<tspan x="10" y="490">&gt; server listening on http-port 35080</tspan>
<tspan x="10" y="506"></tspan>
<tspan x="10" y="522">/home/travis/build/npmdoc/node-npmdoc-slug/node_modules/utility2/lib.utility2.sh.html.js</tspan>
<tspan x="10" y="538"> #1 Line too long.</tspan>
<tspan x="10" y="554">    process.stdout.write('export npm_package_' + key.replace((/\W/g), '_') + '=' + JSON.stringif\</tspan>
<tspan x="10" y="570">y(value) + ';'); // Line 1445, Pos 116</tspan>
<tspan x="10" y="586"></tspan>
<tspan x="10" y="602">merging file:///home/travis/build/npmdoc/node-npmdoc-slug/tmp/build/test-report.json to test-rep\</tspan>
<tspan x="10" y="618">ort</tspan>
<tspan x="10" y="634">Xlib:  extension "RANDR" missing on display ":99.0".</tspan>
<tspan x="10" y="650">[4916:0325/123553:WARNING:audio_manager.cc(314)] Multiple instances of AudioManager detected</tspan>
<tspan x="10" y="666">[4916:0325/123553:WARNING:audio_manager.cc(275)] Multiple instances of AudioManager detected</tspan>
<tspan x="10" y="682">[4945:0325/123553:ERROR:sandbox_linux.cc(343)] InitializeSandbox() called with multiple threads \</tspan>
<tspan x="10" y="698">in process gpu-process. </tspan>
<tspan x="10" y="714">[4916:0325/123553:ERROR:browser_gpu_channel_host_factory.cc(131)] Failed to create channel.</tspan>
<tspan x="10" y="730"></tspan>
<tspan x="10" y="746">/home/travis/build/npmdoc/node-npmdoc-slug/node_modules/utility2/lib.utility2.sh.html.js</tspan>
<tspan x="10" y="762"> #1 Line too long.</tspan>
<tspan x="10" y="778">    process.stdout.write('export npm_package_' + key.replace((/\W/g), '_') + '=' + JSON.stringif\</tspan>
<tspan x="10" y="794">y(value) + ';'); // Line 1445, Pos 116</tspan>
<tspan x="10" y="810"></tspan>
<tspan x="10" y="826">merging file:///home/travis/build/npmdoc/node-npmdoc-slug/tmp/build/test-report.json to test-rep\</tspan>
<tspan x="10" y="842">ort</tspan>
<tspan x="10" y="858">Xlib:  extension "RANDR" missing on display ":99.0".</tspan>
<tspan x="10" y="874">[4920:0325/123553:WARNING:audio_manager.cc(314)] Multiple instances of AudioManager detected</tspan>
<tspan x="10" y="890">[4920:0325/123553:WARNING:audio_manager.cc(275)] Multiple instances of AudioManager detected</tspan>
<tspan x="10" y="906">[4977:0325/123553:ERROR:sandbox_linux.cc(343)] InitializeSandbox() called with multiple threads \</tspan>
<tspan x="10" y="922">in process gpu-process. </tspan>
<tspan x="10" y="938"></tspan>
<tspan x="10" y="954">browserTest - opened url file:///home/travis/build/npmdoc/node-npmdoc-slug/tmp/build/apidoc.html</tspan>
<tspan x="10" y="970"></tspan>
<tspan x="10" y="986"></tspan>
<tspan x="10" y="1002">browserTest - opened url http://127.0.0.1:55346?modeTest=1</tspan>
<tspan x="10" y="1018"></tspan>
<tspan x="10" y="1034">[4920:0325/123555:INFO:CONSOLE(203)] "----------|-----------|-----------|-----------|-----------\</tspan>
<tspan x="10" y="1050">|</tspan>
<tspan x="10" y="1066">File      |   % Stmts |% Branches |   % Funcs |   % Lines |</tspan>
<tspan x="10" y="1082">----------|-----------|-----------|-----------|-----------|</tspan>
<tspan x="10" y="1098">----------|-----------|-----------|-----------|-----------|</tspan>
<tspan x="10" y="1114">All files |       100 |       100 |       100 |       100 |</tspan>
<tspan x="10" y="1130">----------|-----------|-----------|-----------|-----------|</tspan>
<tspan x="10" y="1146">", source: file:///home/travis/build/npmdoc/node-npmdoc-slug/tmp/electron.15b05773e100.563dbc427\</tspan>
<tspan x="10" y="1162">d30e.html (203)</tspan>
<tspan x="10" y="1178">[4920:0325/123555:INFO:CONSOLE(203)] "created coverage file:///tmp/build/coverage.html/index.htm\</tspan>
<tspan x="10" y="1194">l", source: file:///home/travis/build/npmdoc/node-npmdoc-slug/tmp/electron.15b05773e100.563dbc42\</tspan>
<tspan x="10" y="1210">7d30e.html (203)</tspan>
<tspan x="10" y="1226">[node test-case 4 of 6 passed] - testCase_buildApp_default</tspan>
<tspan x="10" y="1242"></tspan>
<tspan x="10" y="1258">browserTest - created screen-capture file:///home/travis/build/npmdoc/node-npmdoc-slug/tmp/build\</tspan>
<tspan x="10" y="1274">/screen-capture.npmTest.browser._2Fhome_2Ftravis_2Fbuild_2Fnpmdoc_2Fnode-npmdoc-slug_2Ftmp_2Fbui\</tspan>
<tspan x="10" y="1290">ld_2Fapidoc.html.png</tspan>
<tspan x="10" y="1306"></tspan>
<tspan x="10" y="1322"></tspan>
<tspan x="10" y="1338">browserTest - exit-code 0 - file:///home/travis/build/npmdoc/node-npmdoc-slug/tmp/build/apidoc.h\</tspan>
<tspan x="10" y="1354">tml</tspan>
<tspan x="10" y="1370"></tspan>
<tspan x="10" y="1386">[node test-case 5 of 6 passed] - testCase_buildApidoc_default</tspan>
<tspan x="10" y="1402"></tspan>
<tspan x="10" y="1418">browserTest - created screen-capture file:///home/travis/build/npmdoc/node-npmdoc-slug/tmp/build\</tspan>
<tspan x="10" y="1434">/screen-capture.npmTest.browser..png</tspan>
<tspan x="10" y="1450"></tspan>
<tspan x="10" y="1466"></tspan>
<tspan x="10" y="1482">browserTest - exit-code 0 - http://127.0.0.1:55346?modeTest=1</tspan>
<tspan x="10" y="1498"></tspan>
<tspan x="10" y="1514"></tspan>
<tspan x="10" y="1530">browserTest - merged coverage from /home/travis/build/npmdoc/node-npmdoc-slug/tmp/coverage.npmTe\</tspan>
<tspan x="10" y="1546">st.browser.%2F.json</tspan>
<tspan x="10" y="1562"></tspan>
<tspan x="10" y="1578"></tspan>
<tspan x="10" y="1594">browserTest - merging test-report from /home/travis/build/npmdoc/node-npmdoc-slug/tmp/test-repor\</tspan>
<tspan x="10" y="1610">t.npmTest.browser.%2F.json</tspan>
<tspan x="10" y="1626"></tspan>
<tspan x="10" y="1642">[node test-case 6 of 6 passed] - testCase_webpage_default</tspan>
<tspan x="10" y="1658">-------------------------|-----------|-----------|-----------|-----------|</tspan>
<tspan x="10" y="1674">File                     |   % Stmts |% Branches |   % Funcs |   % Lines |</tspan>
<tspan x="10" y="1690">-------------------------|-----------|-----------|-----------|-----------|</tspan>
<tspan x="10" y="1706">   node-npmdoc-slug/     |       100 |       100 |       100 |       100 |</tspan>
<tspan x="10" y="1722">      example.js         |       100 |       100 |       100 |       100 |</tspan>
<tspan x="10" y="1738">      lib.npmdoc_slug.js |       100 |       100 |       100 |       100 |</tspan>
<tspan x="10" y="1754">      test.js            |       100 |       100 |       100 |       100 |</tspan>
<tspan x="10" y="1770">-------------------------|-----------|-----------|-----------|-----------|</tspan>
<tspan x="10" y="1786">All files                |       100 |       100 |       100 |       100 |</tspan>
<tspan x="10" y="1802">-------------------------|-----------|-----------|-----------|-----------|</tspan>
<tspan x="10" y="1818"></tspan>
<tspan x="10" y="1834">created coverage file:///home/travis/build/npmdoc/node-npmdoc-slug/tmp/build/coverage.html/index\</tspan>
<tspan x="10" y="1850">.html</tspan>
<tspan x="10" y="1866"></tspan>
<tspan x="10" y="1882">/home/travis/build/npmdoc/node-npmdoc-slug/node_modules/utility2/lib.utility2.sh.html.js</tspan>
<tspan x="10" y="1898"> #1 Line too long.</tspan>
<tspan x="10" y="1914">    process.stdout.write('export npm_package_' + key.replace((/\W/g), '_') + '=' + JSON.stringif\</tspan>
<tspan x="10" y="1930">y(value) + ';'); // Line 1445, Pos 116</tspan>
<tspan x="10" y="1946"></tspan>
<tspan x="10" y="1962">merging file:///home/travis/build/npmdoc/node-npmdoc-slug/tmp/build/test-report.json to test-rep\</tspan>
<tspan x="10" y="1978">ort</tspan>
<tspan x="10" y="1994"></tspan>
<tspan x="10" y="2010">-------------------------------------------------------</tspan>
<tspan x="10" y="2026">| test-report - buildNpmdoc - node - linux v6.10.1 - 2017-03-25T12:35:40.733Z</tspan>
<tspan x="10" y="2042">|   16856 ms            0 failed        6 passed      |</tspan>
<tspan x="10" y="2058">-------------------------------------------------------</tspan>
<tspan x="10" y="2074"></tspan>
<tspan x="10" y="2090">created test-report file:///home/travis/build/npmdoc/node-npmdoc-slug/tmp/build/test-report.html</tspan>
<tspan x="10" y="2106"></tspan>
<tspan x="10" y="2122"></tspan>
<tspan x="10" y="2138">npmTest - 0 failed tests</tspan>
<tspan x="10" y="2154"></tspan>
<tspan x="10" y="2170"></tspan>
<tspan x="10" y="2186">[MODE_BUILD=npmTest] - 2017-03-25T12:36:00Z - EXIT_CODE - 0</tspan>
</text>
</svg>
